<svg width="100" height="100" xmlns="http://www.w3.org/2000/svg">

 <g>
  <title>background</title>
  <rect fill="none" id="canvas_background" height="102" width="102" y="-1" x="-1"/>
 </g>
 <g>
  <title>Layer 1</title>
  <g id="svg_1">
   <path id="svg_2" d="m6.498,62l11.502,0l0,27.23c0,3.557 2.414,6.77 6.005,6.77l51.016,0c3.59,0 6.979,-3.213 6.979,-6.77l0,-27.23l11.365,0c0.008,0 0.015,0 0.02,0c3.591,0 6.502,-2.801 6.502,-6.359c0,-1.873 -0.808,-3.479 -2.096,-4.656l-43.144,-45.035c-1.229,-1.281 -2.933,-2.033 -4.716,-2.033c-1.782,0 -3.062,0.672 -4.29,1.953l-13.641,14.645l0,-9.145c0,-3.396 -3.337,-6.15 -7,-6.15s-7,2.753 -7,6.15l0,22.957l-16.159,16.762c-1.789,1.866 -2.313,4.735 -1.286,7.101c1.025,2.365 3.344,3.81 5.943,3.81zm43.434,-40.527l28.295,29.527l-3.206,0c-3.59,0 -7.021,1.179 -7.021,4.735l0,27.265l-36,0l0,-27.265c0,-3.556 -4.404,-4.735 -7.995,-4.735l-2.367,0l28.294,-29.527z" fill="#000000"/>
  </g>
  <text id="svg_3" font-family="'Helvetica Neue', Helvetica, Arial-Unicode, Arial, Sans-serif" font-weight="bold" font-size="5px" fill="#000000" y="115" x="0">Created by Michael Zenaty</text>
  <text id="svg_4" font-family="'Helvetica Neue', Helvetica, Arial-Unicode, Arial, Sans-serif" font-weight="bold" font-size="5px" fill="#000000" y="120" x="0">from the Noun Project</text>
 </g>
</svg>